<?xml version="1.0" encoding="UTF-8"?>
<svg id="Layer_1" xmlns="http://www.w3.org/2000/svg" version="1.1" xmlns:xlink="http://www.w3.org/1999/xlink" viewBox="0 0 125.4 73.2">
  <!-- Generator: Adobe Illustrator 29.0.0, SVG Export Plug-In . SVG Version: 2.1.0 Build 186)  -->
  <defs>
    <style>
      .st0 {
        fill: #808082;
      }

      .st1 {
        fill: #fff;
      }

      .st2 {
        fill: none;
      }

      .st3 {
        clip-path: url(#clippath-1);
      }

      .st4 {
        fill: #2e69b0;
      }

      .st5 {
        clip-path: url(#clippath);
      }
    </style>
    <clipPath id="clippath">
      <rect class="st2" x="4.7" y="11.7" width="116" height="49.7"/>
    </clipPath>
    <clipPath id="clippath-1">
      <rect class="st2" x="4.7" y="11.7" width="116" height="49.7"/>
    </clipPath>
  </defs>
  <rect class="st1" width="125.4" height="73.2"/>
  <g class="st5">
    <g class="st3">
      <g>
        <path class="st0" d="M41,52.4c-1.7,1.6-3.4,3-5.1,4.3,1.5,1.7,3.1,3.3,4.6,4.7,1.8-1.3,3.6-2.8,5.3-4.5-1.5-1.4-3.2-3-4.8-4.5"/>
        <path class="st0" d="M39.5,39.1c-1.1,1.5-2.3,3-3.7,4.5,1.7,1.6,3.5,3.2,5.2,4.7,1.5-1.6,2.9-3.3,4.2-5.1-1.8-1.4-3.7-2.8-5.6-4.2h-.1Z"/>
        <path class="st0" d="M43,14.2s0,.1.2.2c.7.8,1.3,1.7,1.7,2.7,2.2.3,4.3.7,6.3,1.4-.5-1.1-1.1-2.1-1.9-3,0,0-.2-.2-.2-.3-1.9-.6-4-1-6.1-1.1"/>
        <path class="st0" d="M27.2,50.8c-1.5.9-3,1.7-4.5,2.4,1.1,2.1,2.3,4.1,3.5,5.9,1.7-.7,3.4-1.6,5.1-2.7-1.4-1.8-2.8-3.7-4.1-5.6"/>
        <path class="st4" d="M34,45.4c-1.4,1.4-2.9,2.6-4.4,3.7,1.4,1.9,2.9,3.7,4.4,5.4,1.7-1.2,3.3-2.6,5-4.2-1.6-1.6-3.3-3.3-4.9-5"/>
        <path class="st0" d="M31.3,33.6c-.8,1.1-1.7,2.3-2.8,3.4,1.6,1.5,3.3,3.1,5,4.7,1.3-1.4,2.4-2.8,3.5-4.2-1.9-1.3-3.9-2.6-5.7-3.8"/>
        <path class="st0" d="M34.3,28.3c-.5,1.2-1.1,2.3-1.8,3.5,2,1,4,2.2,6.1,3.3.9-1.5,1.7-2.9,2.3-4.4-2.1-.9-4.3-1.8-6.5-2.5"/>
        <path class="st4" d="M35.9,23.1c-.2,1.1-.4,2.2-.8,3.3,2.2.5,4.5,1.2,6.7,2,.5-1.4.8-2.8,1-4.2-2.3-.5-4.6-.9-6.9-1.1"/>
        <path class="st0" d="M33.9,15s0,.1.2.2c.5.6.9,1.3,1.3,2,2.3-.3,4.6-.5,6.8-.4-.4-.9-.9-1.8-1.6-2.5,0,0,0-.1-.2-.2-2.1,0-4.3.4-6.4.9"/>
        <path class="st0" d="M30.6,13.1c.9.2,1.6.6,2.3,1,2-.6,4.1-1,6.2-1.1-.9-.6-1.9-1-2.9-1.3-1.9.2-3.7.7-5.6,1.4Z"/>
        <path class="st0" d="M19.4,15.6h.1l-.4.3-.4.3c.2-.2.5-.3.7-.4"/>
        <path class="st0" d="M5.2,33c.3-1.1.8-2.3,1.3-3.4v.2l-.6,1.4c-.4,1-.8,2.3-1.1,3.2,0-.5.3-.9.5-1.4h-.1Z"/>
        <path class="st0" d="M8.3,44.7c-.7-.4-1.3-.8-1.8-1.4,0,0,0,0-.2-.2-.4,2.1-.6,4.2-.6,6.2,0,0,0,0,.2.2.7.7,1.4,1.3,2.3,1.8-.2-2.2-.2-4.4,0-6.6"/>
        <path class="st4" d="M17,44.7c-1.1.4-2.1.6-3.2.7.3,2.3.7,4.6,1.3,6.8,1.3-.2,2.6-.5,4-.9-.8-2.2-1.6-4.4-2.1-6.6Z"/>
        <path class="st4" d="M27.2,38.3c-1.1,1-2.2,1.9-3.3,2.8,1.2,1.9,2.5,3.8,3.9,5.7,1.4-1,2.8-2.2,4.1-3.5-1.6-1.7-3.2-3.4-4.7-5Z"/>
        <path class="st0" d="M23.5,29c-.5.6-1,1.3-1.5,1.9,1.4,1.3,3,2.7,4.6,4.2.9-1,1.7-1.9,2.4-2.9-1.9-1.1-3.7-2.2-5.4-3.1"/>
        <path class="st4" d="M25.2,26c-.3.6-.6,1.3-1,1.9,1.9.7,3.8,1.6,5.8,2.6.6-1,1.2-2,1.6-3.1-2.2-.6-4.3-1.1-6.4-1.4"/>
        <path class="st4" d="M26,23.1c0,.6-.2,1.2-.5,1.8,2.2.1,4.4.4,6.6.8.3-1,.6-2,.7-2.9-2.3,0-4.6,0-6.9.2"/>
        <path class="st4" d="M26,20.6c.1.5.2,1,.1,1.6,2.3-.4,4.6-.7,7-.8,0-.9,0-1.7-.2-2.5-2.3.4-4.6.9-6.9,1.7"/>
        <path class="st0" d="M24.9,18.6h0c.3.3.5.7.7,1.1,2.2-.9,4.5-1.6,6.7-2.1-.3-.6-.6-1.2-1.1-1.7h-.1c-2.1.6-4.2,1.6-6.3,2.7"/>
        <path class="st4" d="M23.1,17.6c.5.1.9.3,1.3.6,1.9-1.3,3.9-2.3,6-3.1-.6-.4-1.3-.7-2.1-.9-1.8.9-3.5,2.1-5.2,3.4"/>
        <path class="st0" d="M20.6,17.5c.6,0,1.1-.1,1.6,0,1.5-1.4,3.1-2.6,4.7-3.5-.8,0-1.7,0-2.6.1-1.4.9-2.6,2.1-3.8,3.5h0Z"/>
        <path class="st4" d="M17.9,18.4c.6-.3,1.2-.5,1.8-.7,1-1.3,2.1-2.5,3.2-3.3-.9.3-1.9.6-2.9,1.1-.9.8-1.6,1.7-2.2,3"/>
        <path class="st4" d="M15,20.2c.6-.5,1.2-.9,1.9-1.3.4-1.1.9-2,1.6-2.7-1,.6-2,1.2-2.9,2-.3.4-.5,1.1-.5,1.9"/>
        <path class="st0" d="M12.3,22.8c.3-.3.5-.6.8-.9s.6-.6.9-.8c-.2-.7-.2-1.2,0-1.5-.5.4-.9.9-1.4,1.3-.5.5-.9.9-1.3,1.4.1,0,.5.1,1,.5"/>
        <path class="st0" d="M10.2,25.7c.4-.6.8-1.3,1.3-1.9-.7-.1-1.2,0-1.5.1-.7,1-1.4,2-2,3,.5-.5,1.3-1,2.2-1.2Z"/>
        <path class="st4" d="M9,28.6c.2-.6.4-1.3.7-1.9-1.1.5-1.9,1.1-2.5,1.8-.5,1-.9,2-1.1,3,.7-1.1,1.7-2.1,2.9-2.9"/>
        <path class="st0" d="M8.6,31.3c0-.5,0-1.1.1-1.7-1.3,1.1-2.3,2.3-3.1,3.5-.2,1-.3,1.9-.2,2.7.8-1.6,1.9-3.1,3.2-4.5Z"/>
        <path class="st4" d="M9.2,33.6c-.2-.4-.4-.9-.5-1.4-1.3,1.6-2.3,3.3-3.1,5,0,.8.4,1.6.8,2.2.7-2,1.7-3.9,2.8-5.8Z"/>
        <path class="st4" d="M10.7,35.1c-.4-.2-.7-.5-1-.8h0c-1.1,2-2,4.1-2.6,6.2,0,0,0,0,0,.2.5.5,1,.9,1.6,1.2.4-2.2,1.1-4.5,2-6.7"/>
        <path class="st0" d="M12.9,35.6c-.5,0-1,0-1.5-.2-.7,2.3-1.2,4.6-1.5,6.9.7.2,1.5.3,2.4.3,0-2.3.3-4.7.7-7h0Z"/>
        <path class="st0" d="M15.5,35.2c-.6.2-1.2.3-1.8.4-.2,2.3-.3,4.6-.2,7,.9,0,1.8-.3,2.8-.6-.4-2.3-.7-4.5-.9-6.7h.1Z"/>
        <path class="st4" d="M18.4,33.8c-.6.4-1.2.7-1.9,1,.3,2.1.8,4.3,1.4,6.5,1-.4,2-.9,2.9-1.6-1-2-1.8-4-2.5-5.9"/>
        <path class="st0" d="M21.4,31.5c-.6.5-1.2,1-1.9,1.5.8,1.8,1.8,3.7,2.8,5.7,1-.7,2-1.4,3-2.3-1.4-1.7-2.7-3.3-3.9-4.8"/>
        <path class="st4" d="M58.3,31.9l-.5,1.7-.9,2.9c0,.2,0,.3-.2.4,0,0-.3.2-.6.2h-1.8c-.3,0-.4,0-.6,0,0,0-.2-.2-.2-.4l-3.3-11.7v-.3s0-.1.3-.1h2.2c.2,0,.4,0,.5.1,0,0,.2.2.2.4.2.9.4,1.7.6,2.4,0,.3.2.6.2.9s0,.6.2.8c0,.2,0,.5.2.6v.3l.7,3h0l.6-2.1s0-.2.2-.5c0-.3.2-.7.3-1.1s.2-.7.3-1.1c0-.3.2-.5.2-.5l-.9-2.8v-.3s0-.2.3-.2h2c.2,0,.4,0,.5.1,0,0,.2.2.2.4.2,1,.5,1.8.7,2.6,0,.3.2.7.3,1,0,.3.2.6.2.9s0,.5.2.7v.3l.6,2.6h0l.6-2.8v-.3c0-.2,0-.4,0-.6,0-.3,0-.5.2-.8,0-.3.2-.6.2-.9.2-.8.4-1.6.6-2.5,0-.2,0-.3.2-.4,0,0,.3-.1.5-.1h2.1c.2,0,.3,0,.3.1v.4l-3.1,11.7c0,.2,0,.3-.2.4,0,0-.3,0-.6,0h-1.7c-.3,0-.5,0-.6-.2,0,0-.2-.2-.2-.4l-.9-2.9-.5-1.7h0l.3-.2Z"/>
        <path class="st4" d="M68.2,24.7v-.3s.2-.1.3-.1h2.2c.2,0,.3,0,.3.1v12.4s-.2,0-.3,0h-2.2c-.2,0-.3,0-.3,0v-12.1Z"/>
        <path class="st4" d="M82.3,26.7s-.2.1-.3.1h-2.8v10s-.2,0-.3,0h-2.2c-.2,0-.3,0-.3,0v-10h-2.8c-.2,0-.3,0-.3-.1v-2.3s.2-.1.3-.1h8.7c.3,0,.4.1.4.4v2"/>
        <path class="st4" d="M87.9,37.2h-1.8c-.3,0-.7,0-1-.2-.4,0-.7-.2-1-.3s-.5-.2-.5-.4v-.4l.2-1.1c0-.3,0-.4.2-.4h3.9c.7,0,1.1,0,1.4-.3.3-.2.5-.5.5-.9v-.6c0,0-.2-.3-.3-.4,0,0-.3-.2-.6-.3-.2,0-.5-.1-.8-.2-.6-.1-1.1-.3-1.6-.4-.5-.2-1-.4-1.4-.7-.4-.3-.8-.6-1-1.1-.3-.4-.4-1-.4-1.7s0-1.2.3-1.7c.2-.5.5-.9.9-1.2.4-.3.9-.6,1.5-.7.6-.2,1.2-.3,1.9-.3s.4,0,.7,0h.9c.3,0,.7,0,1,.2.4,0,.7.2,1,.3.3.1.5.2.5.4v.5l-.3,1.1v.3h-.2c0,.1,0,.1-.2.1h-.3c-.4,0-.9-.1-1.3-.2h-1.6c-.6,0-1,0-1.3.3-.3.2-.4.5-.4.9v.5c0,.1.2.2.3.3,0,0,.3.2.5.2s.5.1.8.2c.5.1,1.1.2,1.6.4.5.2,1,.4,1.4.6.4.3.8.7,1,1.1s.4,1.1.4,1.8,0,1.4-.4,1.9-.7.9-1.1,1.2c-.5.3-1,.5-1.6.7-.6,0-1.2.2-1.9.2"/>
        <path class="st4" d="M100.3,29.7l-.6-2.3h0l-.6,2.3-.6,2.1h2.5l-.6-2.1h-.1ZM97.1,36.5c0,.2,0,.3-.2.4,0,0-.2,0-.4,0h-2.4v-.4l3.7-11.7c0-.2,0-.3.2-.4,0,0,.3-.1.5-.1h2.4c.3,0,.4,0,.5.2,0,.1.2.2.2.4l3.9,11.7v.3s0,0-.2,0h-2.4c-.2,0-.4,0-.4,0s0-.2-.2-.5l-.6-2.3h-3.8l-.7,2.3h0Z"/>
        <path class="st0" d="M52.7,45.8v.5c0,0-.4.8-.4.8h0q0,0-.2,0h-.7c0,0-.9-3.3-.9-3.3h.7c0,.3,0,.6.2.8v.7h0l.2.8h0l.2-.6h0v-.7h0c0,0-.2-.9-.2-.9h.7c0,.4,0,.6.2.8v.7h0l.2.7h0l.2-.8h0v-.7c0-.2,0-.4.2-.7h0q0,0,0,0h.6l-.8,3.2h0q0,0-.2,0h-.7c0,0-.2-.9-.2-.9v-.5h-.2,1Z"/>
        <path class="st0" d="M56.6,45.9v-.5c0,0-.2-.2-.3-.2s-.3,0-.3.2v1c0,0,.2.2.3.2s.3,0,.3-.2v-.5M57.5,45.8v.5c0,.2,0,.3-.2.4,0,0-.2.2-.4.3-.2,0-.4,0-.7,0s-.5,0-.7,0c-.2,0-.3-.2-.4-.3,0,0,0-.3,0-.4v-.9c0-.2,0-.3.2-.4,0,0,.2-.2.4-.3.2,0,.4,0,.6,0s.5,0,.6,0c.2,0,.3.2.4.3,0,0,0,.3.2.4v.5"/>
        <path class="st0" d="M58.8,45h0s0,0,.2,0c0,0,0,0,.2,0h.5v.6h0c-.3,0-.6,0-.9.2v1.5h-.6v-2.3h.6v.3h0Z"/>
        <path class="st0" d="M61,46.4h0q0,0,.2,0h0v.4h0c0,0,0,0-.2,0h-.2c-.2,0-.4,0-.5-.2,0,0-.2-.3-.2-.5v-2.9h.6v2.8h0l.3.2Z"/>
        <path class="st0" d="M63.3,45.3h-.7v1.1h.6v-1.1h.1ZM64.1,47.1h-.6c0,0-.2.1-.4.1h-.8c0,0-.2-.2-.3-.3,0,0,0-.3,0-.4v-1.1c0-.2,0-.3.2-.4,0,0,.2-.2.3-.3h1.1v-1h.6v3.5h0Z"/>
        <path class="st0" d="M66.2,43.8h.6v3.2h-.6v-3.2h0Z"/>
        <path class="st0" d="M70.1,47.1h-.6s0,0,0,0v-1.7h-.7v1.6h-.6v-2.3h.6c0,0,.3-.1.4-.1h.8c0,0,.2,0,.2.2v2.2h0"/>
        <path class="st0" d="M73,47.1h-.6s0,0,0,0v-1.7h-.7v1.6h-.6v-2.3h.6c0,0,.3-.1.4-.1h.8c0,0,.2,0,.2.2v2.2h0"/>
        <path class="st0" d="M75.1,45.9v-.5c0,0-.2-.2-.3-.2s-.3,0-.3.2v1c0,0,.2.2.3.2s.3,0,.3-.2v-.5M76,45.8v.5c0,.2,0,.3-.2.4,0,0-.2.2-.4.3-.2,0-.4,0-.7,0s-.5,0-.7,0c-.2,0-.3-.2-.4-.3,0,0,0-.3,0-.4v-.9c0-.2,0-.3.2-.4,0,0,.2-.2.4-.3.2,0,.4,0,.6,0s.5,0,.6,0c.2,0,.3.2.4.3,0,0,0,.3.2.4v.5"/>
        <path class="st0" d="M77.5,46.3h0v-.3s0-.2,0-.3l.3-.9h.7l-.9,2.3h0q0,0-.2,0h-.7c0,0-.9-2.4-.9-2.4h0c0,0,.6,0,.6,0h0c0,0,0,0,0,0l.3.9c0,0,0,.2,0,.3v.2h0c0,0,.5,0,.5,0Z"/>
        <path class="st0" d="M80.7,46.1h-.7v.5h.5c0,0,.2,0,.3,0v-.4h-.1ZM80.8,46.9s0,0-.2.2c0,0-.2,0-.2,0h-.8s-.2,0-.2-.2c0,0,0-.2,0-.2v-.7c0,0,0-.2.2-.3,0,0,.2,0,.3,0h1v-.2h-1.1v-.3h0q0,0,0,0h1.4c0,0,.3,0,.3.2,0,0,0,.2.2.3v1.2h0q0,0,0,0h0v.3s0,0-.2,0h-.6c0,0-.2,0-.2-.3h0Z"/>
        <path class="st0" d="M84,46.9h0c0,.2,0,0,0,0h-1.2c0,0-.2,0-.2-.2,0,0,0-.2,0-.3v-1.5h-.2v-.4h.2v-.5h.5q0-.2,0,0h0v.7h.5v.4h-.5v1h0c0,0,0,0,.2,0h.4v.4h0l.4.3Z"/>
        <path class="st0" d="M85.2,47.1h-.6v-2.3h.6v2.3h0ZM85.2,43.9h0v.2h-.6v-.5s.2,0,.3,0h.3v.3"/>
        <path class="st0" d="M87.4,45.9v-.5c0,0-.2-.2-.3-.2s-.3,0-.3.2v1c0,0,.2.2.3.2s.3,0,.3-.2v-.5M88.2,45.8v.5c0,.2,0,.3-.2.4,0,0-.2.2-.4.3-.2,0-.4,0-.7,0s-.5,0-.7,0c-.2,0-.3-.2-.4-.3,0,0,0-.3,0-.4v-.9c0-.2,0-.3.2-.4,0,0,.2-.2.4-.3.2,0,.4,0,.6,0s.5,0,.6,0c.2,0,.3.2.4.3,0,0,0,.3.2.4v.5"/>
        <path class="st0" d="M91.1,47.1h-.6s0,0,0,0v-1.7h-.7v1.6h-.6v-2.3h.6c0,0,.3-.1.4-.1h.8c0,0,.2,0,.2.2v2.2h0"/>
        <path class="st0" d="M92.4,47v.3c0,0,0,.2,0,.3,0,0,0,.2-.2.2,0,0,0,0-.2.2h-.3v-.2h0c0,0,0-.2,0-.3v-.2c0,0,0-.2,0-.3h0v-.2l.3-.3h.2s0,.2.2.2v.3"/>
        <path class="st0" d="M96.8,44.4h-.8v2.7h-.6v-2.7h-.8v-.5h2.4s0,0,0,0v.5h0"/>
        <path class="st0" d="M98.1,45.2c0,0-.2,0-.3,0v.3h.7v-.3s0,0-.3,0h0ZM97.7,46.1v.2s0,0,0,0h1.1v.3h0q0,0,0,0h-.8c-.3,0-.5,0-.6,0-.2,0-.3-.2-.4-.3,0,0,0-.3-.2-.4v-.9c0-.2,0-.3.2-.4,0,0,.2-.3.4-.4.2,0,.4,0,.7,0s.5,0,.6,0c.2,0,.3.2.4.3,0,0,0,.2.2.4v.6h-1.5v.5Z"/>
        <path class="st0" d="M101.8,46.9h0q0,0,0,0h-.8c-.3,0-.5,0-.6,0-.2,0-.3-.2-.4-.3,0,0,0-.3-.2-.4v-1c0-.2,0-.3.2-.4s.2-.2.4-.3c.2,0,.4,0,.6,0h.4c0,0,.3,0,.4,0,0,0,0,0,0,.2v.3h-.8c-.2,0-.3,0-.4,0,0,0,0,.3,0,.5s0,.4,0,.5c0,0,.2,0,.4,0h.7v.3h0v.4Z"/>
        <path class="st0" d="M104.6,47.1h-.6s0,0,0,0v-1.7h-.6v1.6h-.6v-3.5h.6v1.2c0,0,.2,0,.4-.2h.9c0,0,.2,0,.3.2,0,0,0,.2,0,.3v1.9h0l-.4.3Z"/>
        <path class="st0" d="M107.5,47.1h-.6s0,0,0,0v-1.7h-.7v1.6h-.6v-2.3h.6c0,0,.3-.1.4-.1h.8c0,0,.2,0,.2.2v2.2h0"/>
        <path class="st0" d="M109.7,45.9v-.5c0,0-.2-.2-.3-.2s-.3,0-.3.2v1c0,0,.2.2.3.2s.3,0,.3-.2v-.5M110.5,45.8v.5c0,.2,0,.3-.2.4,0,0-.2.2-.4.3-.2,0-.4,0-.7,0s-.5,0-.7,0c-.2,0-.3-.2-.4-.3,0,0,0-.3,0-.4v-.9c0-.2,0-.3.2-.4,0,0,.2-.2.4-.3.2,0,.4,0,.6,0s.5,0,.6,0c.2,0,.3.2.4.3,0,0,0,.3.2.4v.5"/>
        <path class="st0" d="M111.8,46.4h0q0,0,.2,0h0v.4h0c0,0,0,0-.2,0h-.2c-.2,0-.4,0-.5-.2,0,0-.2-.3-.2-.5v-2.9h.6v2.8h0l.3.2Z"/>
        <path class="st0" d="M114.1,45.9v-.5c0,0-.2-.2-.3-.2s-.3,0-.3.2v1c0,0,.2.2.3.2s.3,0,.3-.2v-.5M114.9,45.8v.5c0,.2,0,.3-.2.4,0,0-.2.2-.4.3-.2,0-.4,0-.7,0s-.5,0-.7,0c-.2,0-.3-.2-.4-.3,0,0,0-.3,0-.4v-.9c0-.2,0-.3.2-.4,0,0,.2-.2.4-.3.2,0,.4,0,.6,0s.5,0,.6,0c.2,0,.3.2.4.3,0,0,0,.3.2.4v.5"/>
        <path class="st0" d="M116.2,45.8v.5h.7v-1.2h-.6v.5M116.6,44.5h1.1s0,0,0,0v2.8c0,0,0,.3-.2.4,0,0-.2.2-.4.2h-1.6v-.4h1.2v-.3h-1c0,0-.3-.2-.3-.3s0-.2-.2-.4v-1c0-.2,0-.3.2-.4,0,0,.2-.2.4-.3h.6v-.4Z"/>
        <path class="st0" d="M119.4,46.2v-.7c0,0,0-.2,0-.4,0,0,0-.3,0-.4h.7l-1.2,3.3h-.6l.4-1-.9-2.4h0c0,0,.6,0,.6,0h0l.2.8.2.7h0l.3.2Z"/>
        <path class="st0" d="M52.2,52.3h-.7v.5h.5c0,0,.2,0,.3,0v-.4h0ZM52.2,53.1l-.2.2s-.2,0-.2,0h-.8s-.2,0-.2-.2c0,0,0-.2,0-.2v-.7c0,0,0-.2.2-.3,0,0,.2,0,.3,0h1v-.2h-.3c-.1,0,0,0,0,0h-.7v-.3h0q0,0,0,0h1.4c0,0,.3,0,.3.2,0,0,0,.2.2.3v1.2h0q0,0,0,0c0,0,0,0,0,0h0v.3s0,0-.2,0h-.6c0,0-.2,0-.2-.3h0Z"/>
        <path class="st0" d="M56,53.4h-.6s0,0,0,0v-1.7h-.7v1.6h-.6v-2.3h.6c0,0,.3-.1.4-.1h.8c0,0,.2,0,.2.2v2.2h0"/>
        <path class="st0" d="M58.1,51.5h-.7v1.1h.6v-1.1h.1ZM58.9,53.3h-.6c0,0-.2.1-.4.1h-.8c0,0-.2-.2-.3-.3,0,0,0-.3,0-.4v-1.1c0-.2,0-.3.2-.4,0,0,.2-.2.3-.3h1.1v-1h.6v3.5h0Z"/>
        <path class="st0" d="M62.2,53.5h-1.2v-.4h0q0,0,0,0h1.2s0,0,0-.3v-.2h-.4c-.2,0-.3,0-.4,0,0,0-.3,0-.4-.2,0,0-.2-.2-.3-.3,0,0,0-.3,0-.5v-.5c0,0,0-.2.3-.3,0,0,.2-.2.4-.2h1.7v.4h-1.1s0,0,0,.2,0,0,0,0h.3c.2,0,.3,0,.4,0,0,0,.3,0,.4.2,0,0,.2.2.3.3,0,0,0,.3,0,.5s0,.4,0,.5c0,0-.2.3-.3.3s-.3,0-.4.2h-.5"/>
        <path class="st0" d="M65.2,51.4c0,0-.2,0-.3,0v.3h.7v-.3s0,0-.3,0h0ZM64.8,52.3v.2s0,0,0,0h1.1v.3h0q0,0,0,0h-.8c-.3,0-.5,0-.6,0-.2,0-.3-.2-.4-.3,0,0,0-.3-.2-.4v-.9c0-.2,0-.3.2-.4,0,0,.2-.3.4-.4.2,0,.4,0,.7,0s.5,0,.6,0c.2,0,.3.2.4.3,0,0,0,.2.2.4s0,.3,0,.4v.2h-1.5v.5Z"/>
        <path class="st0" d="M67.7,51.2h0s0,0,.2,0c0,0,0,0,.2,0h.5v.6h0c-.3,0-.6,0-.9.2v1.5h-.6v-2.3h.6v.3h0Z"/>
        <path class="st0" d="M70.2,52.6h0v-.3s0-.2,0-.3l.3-.9h.7l-.9,2.3h0q0,0-.2,0h-.7c0,0-.9-2.4-.9-2.4h0c0,0,.6,0,.6,0h0c0,0,.3,1,.3,1,0,0,0,.2,0,.3v.2h0c0,0,.5,0,.5,0Z"/>
        <path class="st0" d="M72.7,53.3h-.6v-2.3h.6v2.3h0ZM72.7,50.2h0v.2h-.6v-.5s.2,0,.3,0h.3v.3"/>
        <path class="st0" d="M75.4,53.1h0q0,0,0,0h-.8c-.3,0-.5,0-.6,0-.2,0-.3-.2-.4-.3,0,0,0-.3-.2-.4v-1c0-.2,0-.3.2-.4,0,0,.2-.2.4-.3.2,0,.4,0,.6,0h.4c0,0,.3,0,.4,0,0,0,0,0,0,.2v.3h-.8c-.2,0-.3,0-.4,0,0,0,0,.3,0,.5s0,.4,0,.5c0,0,.2,0,.4,0h.7c0,0,0,0,0,0v.3h0v.4Z"/>
        <path class="st0" d="M77,51.4c0,0-.2,0-.3,0v.3h.7v-.3s0,0-.3,0h0ZM76.6,52.3v.2s0,0,0,0h1.1v.3h0q0,0,0,0h-.8c-.3,0-.5,0-.6,0-.2,0-.3-.2-.4-.3,0,0,0-.3-.2-.4v-.9c0-.2,0-.3.2-.4,0,0,.2-.3.4-.4.2,0,.4,0,.7,0s.5,0,.6,0c.2,0,.3.2.4.3,0,0,0,.2.2.4v.6h-1.5v.5Z"/>
        <path class="st0" d="M80.7,52.6v.4c0,0-.2.2-.3.3,0,0-.2,0-.4,0h-1.4v-.4h1.3v-.3h-.6c0,0-.2,0-.3,0,0,0-.2,0-.2-.2v-.8c0,0,0-.2.2-.3,0,0,.2,0,.3-.2h1.4v.4h-1.2v.2h.6c0,0,.2,0,.3,0,0,0,.2,0,.2.2v.4"/>
        <path class="st0" d="M84.2,51.4l-.2-.6h0l-.2.6-.2.6h.7l-.2-.6h0ZM83.3,53.3h0q0,0,0,0h-.6c0,0,1-3.3,1-3.3h0q0,0,0,0h.8c0,0,1.1,3.3,1.1,3.3h-.7c0,0-.2-.7-.2-.7h-1l-.2.6h-.2Z"/>
        <path class="st0" d="M86.8,52.6h0q0,0,.2,0h0v.4h0c0,0,0,0-.2,0h-.2c-.2,0-.4,0-.5-.2,0,0-.2-.3-.2-.5v-2.9h.6v2.8h0l.3.2Z"/>
        <path class="st0" d="M88.4,52.6h0q0,0,.2,0h0v.4h0c0,0,0,0-.2,0h-.2c-.2,0-.4,0-.5-.2,0,0-.2-.3-.2-.5v-2.9h.6v2.8h0l.3.2Z"/>
        <path class="st0" d="M90,53.3h-.6v-2.3h.6v2.3h0ZM90,50.2h0v.2h-.6v-.5s.2,0,.3,0h.3v.3"/>
        <path class="st0" d="M92.1,52.3h-.7v.5h.5c0,0,.2,0,.3,0v-.4h-.1ZM92.2,53.1s0,0-.2.2c0,0-.2,0-.2,0h-.8s-.2,0-.2-.2c0,0,0-.2,0-.2v-.7c0,0,0-.2.2-.3,0,0,.2,0,.3,0h1v-.2h-1.1v-.3h0q0,0,0,0h1.4c0,0,.3,0,.3.2,0,0,0,.2.2.3v1.2h0q0,0,0,0c0,0,0,0,0,0h0v.3s0,0-.2,0h-.6c0,0-.2,0-.2-.3h0Z"/>
        <path class="st0" d="M96,53.4h-.6s0,0,0,0v-1.7h-.7v1.6h-.6v-2.3h.6c0,0,.2-.1.4-.1h.8c0,0,.2,0,.2.2v2.2h0"/>
        <path class="st0" d="M98.6,53.1h0q0,0,0,0h-.8c-.3,0-.5,0-.6,0-.2,0-.3-.2-.4-.3,0,0,0-.3-.2-.4v-1c0-.2,0-.3.2-.4,0,0,.2-.2.4-.3.2,0,.4,0,.6,0h.4c0,0,.3,0,.4,0,0,0,0,0,0,.2v.3h-.8c-.2,0-.3,0-.4,0,0,0,0,.3,0,.5s0,.4,0,.5c0,0,.2,0,.4,0h.7v.3h0v.4Z"/>
        <path class="st0" d="M100.1,51.4c0,0-.2,0-.3,0v.3h.7v-.3s0,0-.3,0h0ZM99.8,52.3v.2s0,0,0,0h1.1v.3h0q0,0,0,0h-.8c-.3,0-.5,0-.6,0-.2,0-.3-.2-.4-.3,0,0,0-.3-.2-.4v-.9c0-.2,0-.3.2-.4,0,0,.2-.3.4-.4.2,0,.4,0,.7,0s.5,0,.6,0c.2,0,.3.2.4.3,0,0,0,.2.2.4v.6h-1.5v.5Z"/>
      </g>
    </g>
  </g>
</svg>