<svg width="120" height="120" viewBox="0 0 120 120" fill="none" xmlns="http://www.w3.org/2000/svg">
<path d="M79.92 20.16V27L72.9648 33.9672C66.8832 30.7176 60.168 37.7352 64.0224 43.6176C68.6904 50.7432 79.5048 44.424 75.7128 36.7152L83.8944 28.332L83.82 20.508L84.1224 20.1576H94.6824C96.7944 20.1576 99.6984 22.8 99.612 25.068L99.6024 95.1576C99.7056 96.7872 97.0992 99.5976 95.6424 99.5976H69.7224C69.636 99.5976 69.528 99.9888 69.3624 99.72L69.1272 99.4776C69.1368 99.3864 69.3624 99.312 69.3624 99.2376V85.5576C69.3624 85.4856 69.0576 85.3728 69.1224 85.1976H86.1624V72.9576C92.2824 71.3568 92.7288 62.5728 86.7072 60.2928C78.0048 56.9952 73.5312 70.2456 82.3224 72.9576V81.3576L65.2824 81.4776V99.8376C65.1072 99.9024 64.9944 99.5976 64.9224 99.5976H40.4424C40.3704 99.5976 40.2576 99.9024 40.0824 99.8376V90.5976L49.8816 84.3168L49.9608 75.756C51.9288 74.5128 53.7144 73.5504 54.4968 71.1696C56.6424 64.6368 48.8088 59.3232 43.6296 63.8352C39.5208 67.416 41.1936 73.7328 46.092 75.5184L46.044 82.1592L36.0024 88.6776V99.5976H24.3624C22.6392 99.5976 20.1624 96.3432 20.1624 94.6776V40.0776H46.0824L50.6064 46.4736C45.9552 52.9992 54.1896 60.9696 60.3576 55.9104C66.1992 51.1152 60.8496 41.808 53.7528 44.2848L47.6424 35.9976H20.1624V25.3176C20.1624 23.112 23.1024 20.1576 25.3224 20.1576H79.9224L79.92 20.16ZM25.6176 91.9584C23.2152 92.3928 23.736 96.2568 26.2584 96C28.9584 95.724 28.3152 91.4712 25.6176 91.9584Z" fill="url(#paint0_linear_1054_6031)"/>
<path d="M39.84 101.76H36.24V120H39.84V101.76Z" fill="url(#paint1_linear_1054_6031)"/>
<path d="M39.84 0H36.24V16.32H39.84V0Z" fill="url(#paint2_linear_1054_6031)"/>
<path d="M54.48 0H50.88V16.32H54.48V0Z" fill="url(#paint3_linear_1054_6031)"/>
<path d="M69.12 0H65.52V16.32H69.12V0Z" fill="url(#paint4_linear_1054_6031)"/>
<path d="M83.76 0H80.16V16.32H83.76V0Z" fill="url(#paint5_linear_1054_6031)"/>
<path d="M16.32 36.24H0V39.84H16.32V36.24Z" fill="url(#paint6_linear_1054_6031)"/>
<path d="M120 36.24H103.68V39.84H120V36.24Z" fill="url(#paint7_linear_1054_6031)"/>
<path d="M16.32 50.88H0V54.48H16.32V50.88Z" fill="url(#paint8_linear_1054_6031)"/>
<path d="M120 50.88H103.68V54.48H120V50.88Z" fill="url(#paint9_linear_1054_6031)"/>
<path d="M16.32 65.52H0V69.12H16.32V65.52Z" fill="url(#paint10_linear_1054_6031)"/>
<path d="M120 65.52H103.68V69.12H120V65.52Z" fill="url(#paint11_linear_1054_6031)"/>
<path d="M16.32 80.16H0V83.76H16.32V80.16Z" fill="url(#paint12_linear_1054_6031)"/>
<path d="M120 80.16H103.68V83.76H120V80.16Z" fill="url(#paint13_linear_1054_6031)"/>
<path d="M54.48 103.68H50.88V120H54.48V103.68Z" fill="url(#paint14_linear_1054_6031)"/>
<path d="M69.12 103.68H65.52V120H69.12V103.68Z" fill="url(#paint15_linear_1054_6031)"/>
<path d="M83.76 103.68H80.16V120H83.76V103.68Z" fill="url(#paint16_linear_1054_6031)"/>
<path d="M83.9448 63.6432C88.0008 63.1872 88.4088 70.08 83.6544 69.3432C80.388 68.8368 80.7792 63.9984 83.9448 63.6432Z" fill="url(#paint17_linear_1054_6031)"/>
<path d="M47.7024 66.0432C51.7728 65.532 52.2168 72.2736 47.6376 71.7672C44.5104 71.4216 44.3304 66.468 47.7024 66.0432Z" fill="url(#paint18_linear_1054_6031)"/>
<path d="M55.6248 47.808C59.7624 47.2416 60.1056 53.8416 55.8048 53.5248C52.3848 53.2728 52.3656 48.252 55.6248 47.808Z" fill="url(#paint19_linear_1054_6031)"/>
<path d="M69.5424 37.0152C73.356 36.7944 73.776 43.4352 69.0144 42.7032C65.8896 42.2232 66.0744 37.2144 69.5424 37.0152Z" fill="url(#paint20_linear_1054_6031)"/>
<defs>
<linearGradient id="paint0_linear_1054_6031" x1="60" y1="0" x2="60" y2="120" gradientUnits="userSpaceOnUse">
<stop stop-color="#0095DA"/>
<stop offset="0.4" stop-color="#46B3E4"/>
<stop offset="1" stop-color="#8BD1EF"/>
</linearGradient>
<linearGradient id="paint1_linear_1054_6031" x1="60" y1="0" x2="60" y2="120" gradientUnits="userSpaceOnUse">
<stop stop-color="#0095DA"/>
<stop offset="0.4" stop-color="#46B3E4"/>
<stop offset="1" stop-color="#8BD1EF"/>
</linearGradient>
<linearGradient id="paint2_linear_1054_6031" x1="60" y1="0" x2="60" y2="120" gradientUnits="userSpaceOnUse">
<stop stop-color="#0095DA"/>
<stop offset="0.4" stop-color="#46B3E4"/>
<stop offset="1" stop-color="#8BD1EF"/>
</linearGradient>
<linearGradient id="paint3_linear_1054_6031" x1="60" y1="0" x2="60" y2="120" gradientUnits="userSpaceOnUse">
<stop stop-color="#0095DA"/>
<stop offset="0.4" stop-color="#46B3E4"/>
<stop offset="1" stop-color="#8BD1EF"/>
</linearGradient>
<linearGradient id="paint4_linear_1054_6031" x1="60" y1="0" x2="60" y2="120" gradientUnits="userSpaceOnUse">
<stop stop-color="#0095DA"/>
<stop offset="0.4" stop-color="#46B3E4"/>
<stop offset="1" stop-color="#8BD1EF"/>
</linearGradient>
<linearGradient id="paint5_linear_1054_6031" x1="60" y1="0" x2="60" y2="120" gradientUnits="userSpaceOnUse">
<stop stop-color="#0095DA"/>
<stop offset="0.4" stop-color="#46B3E4"/>
<stop offset="1" stop-color="#8BD1EF"/>
</linearGradient>
<linearGradient id="paint6_linear_1054_6031" x1="60" y1="0" x2="60" y2="120" gradientUnits="userSpaceOnUse">
<stop stop-color="#0095DA"/>
<stop offset="0.4" stop-color="#46B3E4"/>
<stop offset="1" stop-color="#8BD1EF"/>
</linearGradient>
<linearGradient id="paint7_linear_1054_6031" x1="60" y1="0" x2="60" y2="120" gradientUnits="userSpaceOnUse">
<stop stop-color="#0095DA"/>
<stop offset="0.4" stop-color="#46B3E4"/>
<stop offset="1" stop-color="#8BD1EF"/>
</linearGradient>
<linearGradient id="paint8_linear_1054_6031" x1="60" y1="0" x2="60" y2="120" gradientUnits="userSpaceOnUse">
<stop stop-color="#0095DA"/>
<stop offset="0.4" stop-color="#46B3E4"/>
<stop offset="1" stop-color="#8BD1EF"/>
</linearGradient>
<linearGradient id="paint9_linear_1054_6031" x1="60" y1="0" x2="60" y2="120" gradientUnits="userSpaceOnUse">
<stop stop-color="#0095DA"/>
<stop offset="0.4" stop-color="#46B3E4"/>
<stop offset="1" stop-color="#8BD1EF"/>
</linearGradient>
<linearGradient id="paint10_linear_1054_6031" x1="60" y1="0" x2="60" y2="120" gradientUnits="userSpaceOnUse">
<stop stop-color="#0095DA"/>
<stop offset="0.4" stop-color="#46B3E4"/>
<stop offset="1" stop-color="#8BD1EF"/>
</linearGradient>
<linearGradient id="paint11_linear_1054_6031" x1="60" y1="0" x2="60" y2="120" gradientUnits="userSpaceOnUse">
<stop stop-color="#0095DA"/>
<stop offset="0.4" stop-color="#46B3E4"/>
<stop offset="1" stop-color="#8BD1EF"/>
</linearGradient>
<linearGradient id="paint12_linear_1054_6031" x1="60" y1="0" x2="60" y2="120" gradientUnits="userSpaceOnUse">
<stop stop-color="#0095DA"/>
<stop offset="0.4" stop-color="#46B3E4"/>
<stop offset="1" stop-color="#8BD1EF"/>
</linearGradient>
<linearGradient id="paint13_linear_1054_6031" x1="60" y1="0" x2="60" y2="120" gradientUnits="userSpaceOnUse">
<stop stop-color="#0095DA"/>
<stop offset="0.4" stop-color="#46B3E4"/>
<stop offset="1" stop-color="#8BD1EF"/>
</linearGradient>
<linearGradient id="paint14_linear_1054_6031" x1="60" y1="0" x2="60" y2="120" gradientUnits="userSpaceOnUse">
<stop stop-color="#0095DA"/>
<stop offset="0.4" stop-color="#46B3E4"/>
<stop offset="1" stop-color="#8BD1EF"/>
</linearGradient>
<linearGradient id="paint15_linear_1054_6031" x1="60" y1="0" x2="60" y2="120" gradientUnits="userSpaceOnUse">
<stop stop-color="#0095DA"/>
<stop offset="0.4" stop-color="#46B3E4"/>
<stop offset="1" stop-color="#8BD1EF"/>
</linearGradient>
<linearGradient id="paint16_linear_1054_6031" x1="60" y1="0" x2="60" y2="120" gradientUnits="userSpaceOnUse">
<stop stop-color="#0095DA"/>
<stop offset="0.4" stop-color="#46B3E4"/>
<stop offset="1" stop-color="#8BD1EF"/>
</linearGradient>
<linearGradient id="paint17_linear_1054_6031" x1="60" y1="0" x2="60" y2="120" gradientUnits="userSpaceOnUse">
<stop stop-color="#0095DA"/>
<stop offset="0.4" stop-color="#46B3E4"/>
<stop offset="1" stop-color="#8BD1EF"/>
</linearGradient>
<linearGradient id="paint18_linear_1054_6031" x1="60" y1="0" x2="60" y2="120" gradientUnits="userSpaceOnUse">
<stop stop-color="#0095DA"/>
<stop offset="0.4" stop-color="#46B3E4"/>
<stop offset="1" stop-color="#8BD1EF"/>
</linearGradient>
<linearGradient id="paint19_linear_1054_6031" x1="60" y1="0" x2="60" y2="120" gradientUnits="userSpaceOnUse">
<stop stop-color="#0095DA"/>
<stop offset="0.4" stop-color="#46B3E4"/>
<stop offset="1" stop-color="#8BD1EF"/>
</linearGradient>
<linearGradient id="paint20_linear_1054_6031" x1="60" y1="0" x2="60" y2="120" gradientUnits="userSpaceOnUse">
<stop stop-color="#0095DA"/>
<stop offset="0.4" stop-color="#46B3E4"/>
<stop offset="1" stop-color="#8BD1EF"/>
</linearGradient>
</defs>
</svg>
